<svg width="97" height="47" viewBox="0 0 97 47" fill="none" xmlns="http://www.w3.org/2000/svg">
<path d="M91.0419 2.64794C76.3017 1.103 37.4588 2.79328 3.90963 2.88995C2.95776 2.89269 2.54644 4.0984 3.29747 4.68322L37.5169 31.3294L47.374 41.3717C47.7266 41.7309 48.2912 41.7721 48.6921 41.4678L71.4862 24.1733L91.5828 4.29583C92.1678 3.71722 91.8602 2.7337 91.0419 2.64794Z" stroke="#EAAE00" stroke-width="4"/>
<path d="M93.499 5.90513C75.328 6.92734 39.8864 3.82392 4.32406 5.51508C3.44683 5.5568 3.05164 6.6287 3.68922 7.23266L24.2468 26.7061L48.5308 45.4831C48.9168 45.7815 49.4619 45.7579 49.8205 45.427L72.0475 24.9252L94.2208 7.7813C95.0173 7.16549 94.5042 5.84859 93.499 5.90513Z" stroke="#EAAE00" stroke-width="2"/>
</svg>
