<svg width="550" height="622" viewBox="0 0 550 622" fill="none" xmlns="http://www.w3.org/2000/svg">
<circle cx="337.5" cy="329.5" r="146.5" fill="url(#paint0_radial_170_2047)"/>
<path fill-rule="evenodd" clip-rule="evenodd" d="M532.154 282.205C532.154 415.03 426.269 522.705 295.654 522.705C165.038 522.705 59.1538 415.03 59.1538 282.205C59.1538 149.381 165.038 41.7051 295.654 41.7051C426.269 41.7051 532.154 149.381 532.154 282.205ZM323.154 343.705C323.154 358.064 316.214 369.705 307.654 369.705C299.093 369.705 292.154 358.064 292.154 343.705C292.154 329.346 299.093 317.705 307.654 317.705C316.214 317.705 323.154 329.346 323.154 343.705ZM404.604 335.116C411.895 330.63 411.706 317.079 404.181 304.849C396.657 292.619 384.646 286.341 377.355 290.827C370.064 295.313 370.254 308.864 377.778 321.094C385.303 333.324 397.313 339.602 404.604 335.116Z" fill="url(#paint1_radial_170_2047)"/>
<path fill-rule="evenodd" clip-rule="evenodd" d="M549.154 297.705C549.154 424.731 447.97 527.705 323.154 527.705C198.337 527.705 97.1538 424.731 97.1538 297.705C97.1538 170.68 198.337 67.7051 323.154 67.7051C447.97 67.7051 549.154 170.68 549.154 297.705ZM323.154 343.705C323.154 358.064 316.214 369.705 307.654 369.705C299.093 369.705 292.154 358.064 292.154 343.705C292.154 329.346 299.093 317.705 307.654 317.705C316.214 317.705 323.154 329.346 323.154 343.705ZM404.604 335.116C411.895 330.63 411.706 317.079 404.181 304.849C396.657 292.619 384.646 286.341 377.355 290.827C370.064 295.313 370.254 308.864 377.778 321.094C385.303 333.324 397.313 339.602 404.604 335.116Z" fill="url(#paint2_radial_170_2047)"/>
<path fill-rule="evenodd" clip-rule="evenodd" d="M510.154 297.705C510.154 407.61 424.64 496.705 319.154 496.705C213.667 496.705 128.154 407.61 128.154 297.705C128.154 187.8 213.667 98.7051 319.154 98.7051C424.64 98.7051 510.154 187.8 510.154 297.705ZM323.154 343.705C323.154 358.064 316.214 369.705 307.654 369.705C299.093 369.705 292.154 358.064 292.154 343.705C292.154 329.346 299.093 317.705 307.654 317.705C316.214 317.705 323.154 329.346 323.154 343.705ZM404.604 335.116C411.895 330.63 411.706 317.079 404.181 304.849C396.657 292.619 384.646 286.341 377.355 290.827C370.064 295.313 370.254 308.864 377.778 321.094C385.303 333.324 397.313 339.602 404.604 335.116Z" fill="url(#paint3_radial_170_2047)"/>
<path fill-rule="evenodd" clip-rule="evenodd" d="M468.154 320.705C468.154 393.607 409.279 452.705 336.654 452.705C264.028 452.705 205.154 393.607 205.154 320.705C205.154 247.803 264.028 188.705 336.654 188.705C409.279 188.705 468.154 247.803 468.154 320.705ZM323.154 343.705C323.154 358.064 316.214 369.705 307.654 369.705C299.093 369.705 292.154 358.064 292.154 343.705C292.154 329.346 299.093 317.705 307.654 317.705C316.214 317.705 323.154 329.346 323.154 343.705ZM404.604 335.116C411.895 330.63 411.706 317.079 404.181 304.849C396.657 292.619 384.646 286.341 377.355 290.827C370.064 295.313 370.254 308.864 377.778 321.094C385.303 333.324 397.313 339.602 404.604 335.116Z" fill="url(#paint4_radial_170_2047)"/>
<path d="M262.198 616.792L238.942 533.734C238.786 533.177 239.134 532.605 239.7 532.486L289.534 522.044C290.271 521.89 290.907 522.573 290.701 523.297L264.123 616.796C263.847 617.766 262.47 617.764 262.198 616.792Z" stroke="#EAAE00" stroke-width="7" stroke-linecap="round"/>
<path d="M72.6538 312.205C69.9622 313.666 66.921 315.311 63.6538 317.072M63.6538 317.072C40.8233 329.378 6.95317 347.355 4.15379 347.705C1.02121 348.097 46.5067 363.853 71.0959 372.178C71.8094 372.42 72.509 371.81 72.3887 371.067L63.6538 317.072Z" stroke="#EAAE00" stroke-width="7" stroke-linecap="round"/>
<path d="M531.154 70.7079C529.209 71.0967 494.659 95.4599 476.199 108.607C475.33 109.225 475.103 110.409 475.681 111.305C485.463 126.449 503.268 152.271 503.654 145.708C504.154 137.208 533.654 70.2079 531.154 70.7079Z" stroke="#EAAE00" stroke-width="7" stroke-linecap="round"/>
<path d="M384.654 74.7011C387.631 70.4378 390.197 65.7714 394.154 60.2051M394.154 60.2051C409.689 38.3529 431.191 9.88905 435.654 6.7011C441.254 2.7011 443.567 2.70522 442.154 9.70458C438.487 27.8714 435.654 55.9146 435.654 72.7051C435.654 87.2051 416.579 71.7087 394.154 60.2051Z" stroke="#EAAE00" stroke-width="7" stroke-linecap="round"/>
<path d="M100.154 296.714C110.987 259.547 151.254 176.314 225.654 140.714C239.063 134.298 252.305 129.712 265.154 126.593M394.654 140.714C435.654 164.72 464.254 207.804 472.654 226.204C483.154 249.204 496.154 282.714 495.654 312.214C495.154 341.714 489.654 381.714 471.154 405.214C452.654 428.714 422.154 460.214 399.154 469.214C376.154 478.214 289.154 512.214 210.154 473.214C146.954 442.014 123.154 325.547 119.154 271.214C119.487 239.214 131.754 168.308 184.154 140.708C236.554 113.108 342.654 103.204 394.654 140.714ZM394.654 140.714C373.886 128.554 323.595 112.407 265.154 126.593M149.654 266.704C142.654 280.204 138.654 312.214 149.654 369.704C154.623 395.677 175.372 489.204 270.872 501.204C366.372 513.204 441.872 443.205 460.372 418.205C478.872 393.205 510.154 324.714 508.654 290.705C507.154 256.696 484.654 170.214 447.654 144.705C410.654 119.196 359.154 103.705 330.154 108.705C306.954 112.705 277.154 122.297 265.154 126.593" stroke="#EAAE00" stroke-width="7" stroke-linecap="round"/>
<defs>
<radialGradient id="paint0_radial_170_2047" cx="0" cy="0" r="1" gradientUnits="userSpaceOnUse" gradientTransform="translate(337.5 329.5) rotate(90) scale(146.5)">
<stop offset="0.598958" stop-color="#F7F7F7"/>
<stop offset="0.809027" stop-color="#F7F7F7" stop-opacity="0"/>
</radialGradient>
<radialGradient id="paint1_radial_170_2047" cx="0" cy="0" r="1" gradientUnits="userSpaceOnUse" gradientTransform="translate(295.654 282.205) rotate(90) scale(240.5 236.5)">
<stop stop-color="#FDCC3A"/>
<stop offset="0.887152" stop-color="#FDCC3A" stop-opacity="0.224524"/>
<stop offset="1" stop-color="#FDCC3A" stop-opacity="0"/>
</radialGradient>
<radialGradient id="paint2_radial_170_2047" cx="0" cy="0" r="1" gradientUnits="userSpaceOnUse" gradientTransform="translate(323.154 297.705) rotate(90) scale(230 226)">
<stop stop-color="#FDCC3A"/>
<stop offset="0.038194" stop-color="#FDCC3A" stop-opacity="0.394098"/>
<stop offset="1" stop-color="#FDCC3A" stop-opacity="0"/>
</radialGradient>
<radialGradient id="paint3_radial_170_2047" cx="0" cy="0" r="1" gradientUnits="userSpaceOnUse" gradientTransform="translate(319.154 297.705) rotate(90) scale(199 191)">
<stop stop-color="#FDCC3A"/>
<stop offset="0.850694" stop-color="#FDCC3A" stop-opacity="0.474971"/>
<stop offset="1" stop-color="#FDCC3A" stop-opacity="0"/>
</radialGradient>
<radialGradient id="paint4_radial_170_2047" cx="0" cy="0" r="1" gradientUnits="userSpaceOnUse" gradientTransform="translate(336.654 320.705) rotate(90) scale(132 131.5)">
<stop offset="0.272569" stop-color="#FFBF00"/>
<stop offset="0.484913" stop-color="#FFBF00" stop-opacity="0.700346"/>
<stop offset="0.790427" stop-color="#FFBF00" stop-opacity="0.474971"/>
<stop offset="0.917183" stop-color="#FFBF00" stop-opacity="0.224524"/>
<stop offset="1" stop-color="#FFBF00" stop-opacity="0"/>
</radialGradient>
</defs>
</svg>
