<svg width="1407" height="311" viewBox="0 0 1407 311" fill="none" xmlns="http://www.w3.org/2000/svg">
<path d="M511.839 232.472C504.42 234.024 497.921 234.628 487.397 234.628C475.838 234.628 464.364 231.866 455.048 226C445.904 219.962 439.549 211.739 434.2 201.56C429.024 191.381 427.012 170.132 427.012 157.71C427.012 144.253 431.842 129.727 439.951 118.168C448.233 106.436 454.128 102.784 466.55 95.8828C477.191 89.823 489.078 90.4536 499.534 90.7589C502.932 90.8582 506.329 91.2364 509.604 92.148C524.065 96.1727 533.071 101.147 541.313 112.965C549.693 124.759 554.188 133.808 554.881 151.454C555.021 155.011 552.297 157.99 548.757 158.364L471.433 166.537C468.722 166.823 466.734 169.23 466.963 171.947C467.844 182.391 468.518 187.838 474.392 195.52C481.121 204.147 486.621 205.872 498.18 205.872C507.251 205.872 511.906 188.995 516.695 178.858C518.702 174.609 522.85 172.153 527.383 170.917L528.373 170.647L536.281 168.49L543.469 167.053L545.964 166.741C548.124 166.471 550.311 166.516 552.458 166.873C553.174 166.993 553.88 167.168 554.569 167.398L557.175 168.267C557.617 168.414 558.018 168.662 558.348 168.991L559.991 170.635C560.477 171.12 560.901 171.664 561.254 172.253L561.959 173.427C562.561 174.43 562.879 175.579 562.879 176.749C562.879 177.473 562.828 178.195 562.725 178.912L562.16 182.868L561.964 183.555C561.14 186.44 559.957 189.212 558.445 191.804L555.69 196.527L547.783 208.029L541.818 215.271C539.1 218.572 535.91 221.455 532.352 223.827C530.182 225.274 527.899 226.543 525.525 227.622L521.184 229.596L511.839 232.472ZM490.859 112.846C487.134 113.992 483.544 115.628 480.496 118.055C470.238 126.221 467.237 133.681 466.662 144.45C466.532 146.886 468.716 148.763 471.13 148.409L517.454 141.615C519.233 141.354 520.668 139.937 520.694 138.139C520.748 134.433 519.793 132.133 518.309 127.515C516.756 122.684 512.932 118.946 508.963 116.013C505.76 113.505 503.305 112.235 498.484 111.839C495.907 111.627 493.33 112.086 490.859 112.846Z" fill="#F7F7F7"/>
<path d="M383.674 233.278C378.141 234.353 372.704 234.353 365.605 234.353C348.648 234.353 336.226 229.878 328.339 220.929C320.649 211.771 316.804 197.723 316.804 178.783V89.5589C316.804 89.0066 316.356 88.5589 315.804 88.5589H293.879C290.393 88.5589 287.092 86.9928 284.888 84.2932C283.411 82.4846 282.513 80.2727 282.313 77.9462L282.102 75.5017C281.9 73.1573 281.911 70.7995 282.132 68.4569L282.313 66.5494C282.515 64.42 283.239 62.3733 284.421 60.5907L285.108 59.5544C287.146 56.4814 290.588 54.6339 294.276 54.6339H304.863C307.01 54.6339 309.154 54.4609 311.274 54.1166L317.09 53.1722C318.058 53.0149 318.77 52.1789 318.77 51.198V40.7586V32.3185C318.77 31.01 318.881 29.7038 319.103 28.4143L320.124 22.4867C320.316 21.3774 320.676 20.304 321.192 19.304L325.342 11.2737L326.293 10.1032C328.909 6.8809 332.241 4.31248 336.023 2.60161L337.299 2.15261C341.02 0.84318 345.164 1.84423 347.877 4.70826L353.276 10.4064L359.848 17.3441L366.906 26.8254C368.138 28.4805 368.433 30.6525 367.687 32.5763L363.113 44.3786C362.041 47.1445 361.491 50.0852 361.491 53.0516V54.3683C361.491 55.4728 362.387 56.3683 363.491 56.3683H385.317H391.808C395.048 56.3683 398.188 57.4919 400.692 59.5477L402.694 61.192C403.703 62.0202 404.611 62.9642 405.4 64.0045L409.218 69.0426C410.258 70.4143 411.095 71.9279 411.705 73.5373L412.46 75.5279C413.475 78.207 413.172 81.2075 411.642 83.6298C411.076 84.5257 410.345 85.3055 409.487 85.9273L408.992 86.2859C406.954 87.7634 404.501 88.5589 401.983 88.5589H365.095C364.491 88.5589 364.025 89.0896 364.103 89.6882L372.993 157.831L374.262 163.187C377.135 175.32 384.642 185.848 395.176 192.519L396.942 193.451C400.117 195.127 402.945 197.392 405.275 200.124C407.792 203.076 409.339 206.732 409.705 210.595L409.964 213.332V215.491C409.964 216.934 409.743 218.368 409.308 219.744L409.186 220.133C409.157 220.224 409.119 220.311 409.072 220.394C407.508 223.144 405.191 225.39 402.393 226.867L401.748 227.207L400.185 228.032C397.944 229.215 395.619 230.231 393.228 231.072C390.698 231.963 388.09 232.612 385.438 233.012L383.674 233.278Z" fill="#F7F7F7"/>
<path d="M276.824 228.037C274.559 231.829 270.468 234.151 266.051 234.151H228.746C226.291 234.151 223.874 233.548 221.707 232.396L221.144 232.097C220.372 231.687 219.684 231.135 219.114 230.471L218.776 230.077C216.727 227.686 215.241 224.864 214.43 221.821L213.53 218.447C213.037 216.597 212.787 214.692 212.787 212.778V198.408V143.774L212.068 136.585L211.349 131.553L209.911 118.613L209.013 110.972C208.658 107.956 208.972 104.898 209.932 102.017L210.079 101.575C210.886 99.155 212.701 97.2023 215.056 96.221L215.176 96.1712C218.368 94.8411 221.684 93.8296 225.075 93.1514C231.245 91.9173 237.523 91.2957 243.815 91.2957H248.587H254.151C257.38 91.2957 260.153 93.5894 260.759 96.7608L260.809 97.0202C260.904 97.5154 260.94 98.02 260.917 98.5237L260.233 113.581L259.715 135.866V155.276L262.389 176.842L262.515 177.635C263.863 186.175 266.324 194.502 269.836 202.403L270.297 203.44L275.329 212.786L276.343 214.814C277.567 217.262 278.205 219.962 278.205 222.699V223.033C278.205 224.795 277.727 226.524 276.824 228.037ZM243.066 25.8789C248.76 25.8789 252.296 28.2081 255.919 32.3488C259.543 36.317 260.952 41.5791 260.952 47.4452C260.952 51.5859 260.664 60.9025 258.076 64.6981C255.488 68.3213 252.555 70.3624 248.587 72.6053C244.618 74.6757 240.305 74.7616 236.51 74.7616C230.989 74.7616 224.318 72.2603 220.695 68.2921C217.071 64.3239 215.056 59.2343 215.056 53.1957C215.056 49.055 216.669 43.1602 219.257 39.5371C221.845 35.7414 225.353 31.5428 229.321 29.4725C233.289 27.2296 239.443 25.8789 243.066 25.8789Z" fill="#F7F7F7"/>
<path d="M276.824 228.037C274.559 231.829 270.468 234.151 266.051 234.151H229.216C226.453 234.151 223.696 233.453 221.256 232.157C220.418 231.711 219.659 231.106 219.041 230.386C216.817 227.791 215.205 224.73 214.325 221.428L213.855 219.666C213.146 217.007 212.787 214.268 212.787 211.516V198.408V143.774L212.068 136.585L211.349 131.553L209.911 118.613L209.013 110.972C208.658 107.956 208.972 104.898 209.932 102.017L210.079 101.575C210.886 99.155 212.701 97.2023 215.056 96.221L215.176 96.1712C218.368 94.8411 221.684 93.8296 225.075 93.1514C231.245 91.9173 237.523 91.2957 243.815 91.2957H248.587H254.151C257.38 91.2957 260.153 93.5894 260.759 96.7608L260.809 97.0202C260.904 97.5154 260.94 98.02 260.917 98.5237L260.233 113.581L259.715 135.866V155.276L262.389 176.842C263.821 185.908 266.434 194.748 270.162 203.136L270.297 203.44L275.329 212.786L276.343 214.814C277.567 217.262 278.205 219.962 278.205 222.699V223.033C278.205 224.795 277.727 226.524 276.824 228.037ZM243.066 25.8789C248.76 25.8789 252.296 28.2081 255.919 32.3488C259.543 36.317 260.952 41.5791 260.952 47.4452C260.952 51.5859 260.664 60.9025 258.076 64.6981C255.488 68.3213 252.555 70.3624 248.587 72.6053C244.618 74.6757 240.305 74.7616 236.51 74.7616C230.989 74.7616 224.318 72.2603 220.695 68.2921C217.071 64.3239 215.056 59.2343 215.056 53.1957C215.056 49.055 216.669 43.1602 219.257 39.5371C221.845 35.7414 225.353 31.5428 229.321 29.4725C233.289 27.2296 239.443 25.8789 243.066 25.8789Z" fill="#F7F7F7"/>
<path d="M158.96 229.8C153.696 232.324 147.933 233.634 142.096 233.634H40.5184C37.0027 233.634 33.5002 233.203 30.0894 232.35L28.2642 231.894C25.3328 231.161 22.7583 229.408 21.002 226.95C18.0734 222.85 16.2569 218.061 15.7294 213.05L15.0964 207.036L14.3775 194.096V171.092L12.9397 134.43L10.7831 97.767L7.18875 61.1044L3.59437 45.2891L0.420866 28.7869C0.144445 27.3495 0.221962 25.8664 0.646729 24.4657C2.45979 18.4868 6.58348 13.4784 12.1032 10.5514L14.3775 9.34537L24.9594 5.03212L29.5967 3.8422C39.438 1.31693 49.7386 1.16706 59.6493 3.40494C64.2666 4.44756 68.2877 7.26638 70.8423 11.2514L71.7193 12.6194C72.7806 14.2749 73.5239 16.1138 73.911 18.0419L73.9865 18.4181C74.5029 20.9898 74.763 23.6063 74.763 26.2293V31.6305V61.1044L73.3252 134.43L72.9763 143.85C72.7301 150.498 73.021 157.156 73.8463 163.759L74.11 165.868C74.5027 169.01 76.8042 171.578 79.8844 172.312C86.4285 173.87 93.2599 173.751 99.7461 171.968L104.237 170.733L107.329 169.882C114.816 167.824 121.976 164.725 128.601 160.676L131.554 158.871L148.448 149.885L155.191 146.61C159.032 144.744 163.247 143.775 167.517 143.775H169.132C171.481 143.775 173.779 144.459 175.745 145.743C178.791 147.732 181.11 150.655 182.353 154.074L184.595 160.239C185.654 163.152 186.375 166.176 186.744 169.253L187.344 174.25C188.01 179.797 188.082 185.399 187.561 190.961L187.315 193.588C186.579 201.436 183.649 208.919 178.861 215.181L176.082 218.814C173.88 221.694 171.027 224.013 167.757 225.581L158.96 229.8Z" fill="#F7F7F7"/>
<path d="M265.435 22.7943C259.988 16.5259 254.671 13 246.111 13C240.664 13 231.412 15.0447 225.446 18.44C219.48 21.5742 214.206 27.9302 210.315 33.6761C206.425 39.1609 204 48.0846 204 54.353C204 63.4943 207.03 71.1991 212.477 77.2063C217.924 83.2134 227.953 87 236.254 87C241.96 87 248.444 86.87 254.41 83.7358C260.376 80.3404 264.786 77.2505 268.677 71.7657C272.568 66.0197 273 51.9159 273 45.6476C273 36.7674 270.882 28.8014 265.435 22.7943Z" fill="url(#paint0_radial_176_2129)"/>
<path d="M942.502 228.037C940.237 231.829 936.146 234.151 931.73 234.151H894.424C891.97 234.151 889.552 233.548 887.385 232.396L886.822 232.097C886.05 231.687 885.362 231.135 884.793 230.471L884.454 230.077C882.405 227.686 880.919 224.864 880.108 221.821L879.208 218.447C878.715 216.597 878.465 214.692 878.465 212.778V198.408V143.774L877.746 136.585L877.027 131.553L875.59 118.613L874.691 110.972C874.336 107.956 874.65 104.898 875.61 102.017L875.757 101.575C876.564 99.155 878.379 97.2023 880.734 96.221L880.854 96.1712C884.046 94.8411 887.362 93.8296 890.753 93.1514C896.923 91.9173 903.201 91.2957 909.494 91.2957H914.265H919.829C923.058 91.2957 925.831 93.5894 926.438 96.7608L926.487 97.0202C926.582 97.5154 926.618 98.02 926.595 98.5237L925.911 113.581L925.393 135.866V155.276L928.067 176.842L928.193 177.635C929.541 186.175 932.002 194.502 935.514 202.403L935.975 203.44L941.007 212.786L942.021 214.814C943.245 217.262 943.883 219.961 943.883 222.699V223.033C943.883 224.795 943.406 226.524 942.502 228.037ZM908.744 25.8789C914.438 25.8789 917.974 28.2081 921.598 32.3488C925.221 36.317 926.63 41.5791 926.63 47.4452C926.63 51.5859 926.342 60.9025 923.754 64.6981C921.166 68.3213 918.233 70.3624 914.265 72.6053C910.296 74.6757 905.984 74.7616 902.188 74.7616C896.667 74.7616 889.996 72.2603 886.373 68.2921C882.75 64.3239 880.734 59.2343 880.734 53.1957C880.734 49.055 882.347 43.1602 884.935 39.5371C887.523 35.7414 891.031 31.5428 894.999 29.4725C898.967 27.2296 905.121 25.8789 908.744 25.8789Z" fill="#F7F7F7"/>
<path d="M942.502 228.037C940.237 231.829 936.146 234.151 931.73 234.151H894.895C892.131 234.151 889.374 233.453 886.934 232.157C886.096 231.711 885.337 231.106 884.719 230.386C882.495 227.791 880.883 224.73 880.003 221.428L879.533 219.666C878.824 217.007 878.465 214.268 878.465 211.516V198.408V143.774L877.746 136.585L877.027 131.553L875.59 118.613L874.691 110.972C874.336 107.956 874.65 104.898 875.61 102.017L875.757 101.575C876.564 99.155 878.379 97.2023 880.734 96.221L880.854 96.1712C884.046 94.8411 887.362 93.8296 890.753 93.1514C896.923 91.9173 903.201 91.2957 909.494 91.2957H914.265H919.829C923.058 91.2957 925.831 93.5894 926.438 96.7608L926.487 97.0202C926.582 97.5154 926.618 98.02 926.595 98.5237L925.911 113.581L925.393 135.866V155.276L928.067 176.842C929.499 185.908 932.112 194.748 935.84 203.136L935.975 203.44L941.007 212.786L942.021 214.814C943.245 217.262 943.883 219.961 943.883 222.699V223.033C943.883 224.795 943.406 226.524 942.502 228.037ZM908.744 25.8789C914.438 25.8789 917.974 28.2081 921.598 32.3488C925.221 36.317 926.63 41.5791 926.63 47.4452C926.63 51.5859 926.342 60.9025 923.754 64.6981C921.166 68.3213 918.233 70.3624 914.265 72.6053C910.296 74.6757 905.984 74.7616 902.188 74.7616C896.667 74.7616 889.996 72.2603 886.373 68.2921C882.75 64.3239 880.734 59.2343 880.734 53.1957C880.734 49.055 882.347 43.1602 884.935 39.5371C887.523 35.7414 891.031 31.5428 894.999 29.4725C898.967 27.2296 905.121 25.8789 908.744 25.8789Z" fill="#F7F7F7"/>
<path d="M931.435 23.7943C925.988 17.5259 920.671 14 912.111 14C906.664 14 897.412 16.0447 891.446 19.44C885.48 22.5742 880.206 28.9302 876.315 34.6761C872.425 40.1609 870 49.0846 870 55.353C870 64.4943 873.03 72.1991 878.477 78.2063C883.924 84.2134 893.953 88 902.254 88C907.96 88 914.444 87.87 920.41 84.7358C926.376 81.3404 930.786 78.2505 934.677 72.7657C938.568 67.0197 939 52.9159 939 46.6476C939 37.7674 936.882 29.8014 931.435 23.7943Z" fill="url(#paint1_radial_176_2129)"/>
<path d="M823.2 229.8C817.937 232.324 812.174 233.634 806.336 233.634H704.759C701.243 233.634 697.741 233.203 694.33 232.35L692.505 231.894C689.573 231.161 686.999 229.408 685.242 226.95C682.314 222.85 680.497 218.061 679.97 213.05L679.337 207.036L678.618 194.096V171.092L677.18 134.43L675.023 97.767L671.429 61.1044L667.835 45.2891L664.661 28.7869C664.385 27.3495 664.462 25.8664 664.887 24.4657C666.7 18.4868 670.824 13.4784 676.344 10.5514L678.618 9.34537L689.2 5.03212L693.837 3.8422C703.678 1.31693 713.979 1.16706 723.89 3.40494C728.507 4.44756 732.528 7.26638 735.083 11.2514L735.96 12.6194C737.021 14.2749 737.764 16.1138 738.151 18.0419L738.227 18.4181C738.743 20.9898 739.003 23.6063 739.003 26.2293V31.6305V61.1044L737.566 134.43L737.217 143.85C736.97 150.498 737.261 157.156 738.087 163.759L738.35 165.868C738.743 169.01 741.045 171.578 744.125 172.312C750.669 173.87 757.5 173.751 763.986 171.968L768.477 170.733L771.569 169.882C779.056 167.824 786.216 164.725 792.842 160.676L795.794 158.871L812.688 149.885L819.431 146.61C823.272 144.744 827.487 143.775 831.758 143.775H833.372C835.721 143.775 838.019 144.459 839.986 145.743C843.031 147.732 845.35 150.655 846.593 154.074L848.835 160.239C849.894 163.152 850.615 166.176 850.985 169.253L851.584 174.25C852.25 179.797 852.323 185.399 851.801 190.961L851.555 193.588C850.819 201.436 847.889 208.919 843.101 215.181L840.323 218.814C838.12 221.694 835.267 224.013 831.998 225.581L823.2 229.8Z" fill="#F7F7F7"/>
<path d="M1307.63 150.245C1305.74 156.454 1303.32 171.093 1303.32 178.281C1303.32 187.737 1308.31 199.736 1315.54 201.285C1325.61 203.442 1332.79 201.285 1338.54 192.659C1340.76 189.336 1344.65 179.964 1346.45 172.53C1352.2 148.808 1359.39 124.032 1339.26 117.896C1330.39 115.189 1323.62 121.53 1319.85 125.085C1315.2 129.476 1309.53 144.037 1307.63 150.245ZM1305.95 237.155C1287.19 231.436 1274.58 220.245 1268.13 203.583C1261.74 186.714 1261.91 167.213 1268.66 145.08C1274.78 125.017 1284.57 110.028 1298.02 100.114C1311.54 89.9939 1328.1 87.9212 1347.7 93.8961C1367.47 99.9221 1380.31 110.957 1386.22 127.001C1392.19 142.839 1391.74 162.03 1384.87 184.577C1378.75 204.64 1368.87 219.939 1355.22 230.474C1341.8 240.852 1325.38 243.079 1305.95 237.155Z" fill="#F7F7F7"/>
<path d="M1251.56 88.9669L1251.97 90.6476C1252.64 93.4081 1252.45 96.3067 1251.44 98.9586L1250.13 102.351L1248.98 105.289C1246.43 111.791 1244.79 118.618 1244.13 125.572L1242.93 138.019V231.473C1242.93 252.839 1239.32 273.687 1229.4 286.755C1219.67 299.823 1199.63 310.549 1180.77 310.549C1163.9 310.549 1149.19 307.642 1138.87 301.626C1128.75 295.611 1126.36 277.304 1126.36 270.666C1126.36 265.895 1126.97 260.975 1129.35 258.071C1131.73 255.374 1135.1 252.32 1138.87 252.32C1142.44 252.32 1146.61 254.477 1149.48 255.914C1152.36 257.352 1157.14 260.37 1160.26 263.103C1165.65 267.816 1172.91 272.627 1172.91 272.627C1176.08 274.605 1179.88 276.937 1186.86 275.324C1193.07 273.89 1213.53 257.242 1216.77 221.844C1216.92 220.196 1215.12 219.182 1213.8 220.182C1204.46 227.274 1190.6 239.551 1177.88 239.551C1171.33 239.551 1164.78 238.514 1158.23 236.439C1151.88 234.157 1145.42 230.527 1138.87 225.549C1132.52 220.57 1127.26 213.206 1123.09 203.457C1119.12 193.5 1117.13 181.884 1117.13 168.608C1117.13 145.375 1123.29 127.536 1135.6 115.09C1148.1 102.643 1164.38 96.4204 1184.43 96.4204C1196.94 96.4204 1207.86 99.7394 1217.19 106.377C1211.52 83.7825 1250.13 80.788 1251.56 88.9669ZM1190.09 197.388C1193.96 194.083 1196.43 189.517 1198.27 184.766L1199.36 181.93L1202.94 168.608L1204.28 161.598C1205.29 156.328 1205.8 150.974 1205.8 145.608C1205.8 142.07 1205.61 138.5 1204.52 135.135C1202.35 128.461 1198.18 122.204 1191.89 122.204C1183.27 122.204 1178.19 124.092 1170.05 135.086C1162.34 145.496 1160.26 156.71 1159.32 162.598C1158.73 166.275 1158 174.991 1159.12 183.696C1160.42 193.686 1167.81 203.457 1177.88 203.457C1181.81 203.457 1186.43 200.506 1190.09 197.388Z" fill="#F7F7F7"/>
<path d="M973.488 234.354C971.007 234.354 968.901 232.535 968.541 230.08L968.324 228.603C968.325 214.985 969.168 207.738 969.168 202.597L969.168 159.762C969.168 151.784 969.101 143.134 969.114 137.35C969.121 133.96 968.92 130.572 968.426 127.218L968.324 126.523C964.011 107.114 961.49 105.388 973.634 99.9136C985.102 94.7442 996.805 89.0945 1001.39 91.3087L1002.83 92.0276C1003.79 92.5058 1004.7 93.0692 1005.55 93.7109L1006.16 94.1664C1006.82 94.6566 1007.43 95.2021 1007.99 95.7969L1010.64 98.6201C1011.42 99.4437 1011.81 100.557 1011.72 101.685L1011.28 107.114C1021.22 98.9896 1037.63 96.3304 1049.56 96.3304C1064.65 97.7681 1076.17 104.968 1084.06 114.302C1090.93 122.426 1094.43 136.455 1094.43 149.394V205.207C1094.43 207.833 1095.03 210.413 1096.25 212.74C1097.98 216.05 1100.15 220.373 1101.03 224.67C1101.27 225.843 1101.26 227.047 1101.14 228.239L1100.9 230.74C1100.7 232.79 1098.98 234.354 1096.92 234.354L1057.12 234.354C1055.14 234.354 1053.35 233.19 1052.55 231.384L1051.94 230.016C1051.32 228.611 1050.99 227.09 1050.99 225.552L1050.99 223.571C1051 214.945 1054.54 189.223 1055.31 183.314L1057.32 151.712C1057.41 150.169 1057.41 148.619 1057.25 147.081C1056.43 139.144 1054.59 132.259 1043.09 132.259C1032.4 132.259 1024.23 135.668 1018.81 140.313C1016.57 142.238 1015.14 144.891 1014.07 147.646C1013.62 148.81 1013.25 150.005 1012.97 151.222L1012.93 151.387C1012.22 154.48 1011.86 157.643 1011.86 160.816V165.874L1015.05 213.517C1015.66 216.57 1016.69 221.598 1018.39 226.211C1018.95 227.725 1018.82 229.427 1017.93 230.77C1016.53 233 1014.09 234.354 1011.46 234.354L973.488 234.354Z" fill="#F7F7F7"/>
<defs>
<radialGradient id="paint0_radial_176_2129" cx="0" cy="0" r="1" gradientUnits="userSpaceOnUse" gradientTransform="translate(238.5 50) rotate(90) scale(37 34.5)">
<stop stop-color="#FEC82A"/>
<stop offset="0.621527" stop-color="#FEC82A"/>
<stop offset="0.772569" stop-color="#FEC82A" stop-opacity="0.475"/>
<stop offset="1" stop-color="#FEC82A" stop-opacity="0"/>
</radialGradient>
<radialGradient id="paint1_radial_176_2129" cx="0" cy="0" r="1" gradientUnits="userSpaceOnUse" gradientTransform="translate(904.5 51) rotate(90) scale(37 34.5)">
<stop stop-color="#FEC82A"/>
<stop offset="0.621527" stop-color="#FEC82A"/>
<stop offset="0.772569" stop-color="#FEC82A" stop-opacity="0.475"/>
<stop offset="1" stop-color="#FEC82A" stop-opacity="0"/>
</radialGradient>
</defs>
</svg>
